# xmcd
#
# Track frame offsets:
#	150
#	16822
#	34000
#	49762
#	68070
#	83590
#	100020
#	116027
#	131200
#	145357
#	162565
#	179240
#	196417
#	212180
#	230490
#	246010
#	262437
#	278445
#	293617
#	307775
#
# Disc length: 4333
#
# Revision: 3
# Processed by: cddbd v1.5.2PL0 Copyright (c) Steve Scherf et al.
# Submitted via: kJams Pro (development) 1.0patch52.29
#
DISCID=2710eb14
DTITLE=Various Artist - THMC0606
DYEAR=2005
DGENRE=Country
TTITLE0=McGraw, Tim - When The Stars Go Blue (Vocals)
TTITLE1=Church, Eric - How 'Bout You (Vocals)
TTITLE2=Williams, Hank Jr and Wilson, Gretchen - That's How They Do It In Dixie (Vocals)
TTITLE3=Underwood, Carrie - Don't Forget To Remember Me (Vocals)
TTITLE4=Gracin, Josh - Favorite State Of Mind (Vocals)
TTITLE5=Hill, Faith - Lucky One, The (Vocals)
TTITLE6=Allan, Gary - Life Ain't Always Beautiful (Vocals)
TTITLE7=Wilson, Gretchen and Haggard, Merle - Politically Uncorrect (Vocals)
TTITLE8=Owen, Jake - Yee Haw (Vocals)
TTITLE9=Cagle, Chris - Wal–Mart Parking Lot (Vocals)
TTITLE10=McGraw, Tim - When The Stars Go Blue
TTITLE11=Church, Eric - How 'Bout You
TTITLE12=Williams, Hank Jr and Wilson, Gretchen - That's How They Do It In Dixie
TTITLE13=Underwood, Carrie - Don't Forget To Remember Me
TTITLE14=Gracin, Josh - Favorite State Of Mind
TTITLE15=Hill, Faith - Lucky One, The
TTITLE16=Allan, Gary - Life Ain't Always Beautiful
TTITLE17=Wilson, Gretchen and Haggard, Merle - Politically Uncorrect
TTITLE18=Owen, Jake - Yee Haw
TTITLE19=Cagle, Chris - Wal–Mart Parking Lot
EXTD=
EXTT0=
EXTT1=
EXTT2=
EXTT3=
EXTT4=
EXTT5=
EXTT6=
EXTT7=
EXTT8=
EXTT9=
EXTT10=
EXTT11=
EXTT12=
EXTT13=
EXTT14=
EXTT15=
EXTT16=
EXTT17=
EXTT18=
EXTT19=
PLAYORDER=
